<?xml version="1.0" encoding="iso-8859-1"?>
<!-- Generator: Adobe Illustrator 19.0.0, SVG Export Plug-In . SVG Version: 6.00 Build 0)  -->
<svg version="1.1" id="Layer_1" xmlns="http://www.w3.org/2000/svg" xmlns:xlink="http://www.w3.org/1999/xlink" x="0px" y="0px"
	 viewBox="0 0 512 512" style="enable-background:new 0 0 512 512;" xml:space="preserve">
<g transform="translate(1 1)">
	<path style="fill:#F0F0F0;" d="M378.733,502.467H280.6c-11.947,0-21.333-9.387-21.333-21.333V63
		c0-11.947,9.387-21.333,21.333-21.333h98.133c11.947,0,21.333,9.387,21.333,21.333v418.987
		C400.067,493.08,390.68,502.467,378.733,502.467"/>
	<path style="fill:#FFFFFF;" d="M237.933,502.467H139.8c-11.947,0-21.333-9.387-21.333-21.333V63
		c0-11.947,9.387-21.333,21.333-21.333h98.133c11.947,0,21.333,9.387,21.333,21.333v418.987
		C259.267,493.08,249.88,502.467,237.933,502.467"/>
	<path style="fill:#E0E0E0;" d="M353.133,502.467H255c-11.947,0-21.333-9.387-21.333-21.333V63c0-11.947,9.387-21.333,21.333-21.333
		h98.133c11.947,0,21.333,9.387,21.333,21.333v418.987C374.467,493.08,365.08,502.467,353.133,502.467"/>
	<path style="fill:#F0F0F0;" d="M327.533,502.467H165.4c-11.947,0-21.333-9.387-21.333-21.333V63
		c0-11.947,9.387-21.333,21.333-21.333h162.987c11.093,0,20.48,9.387,20.48,21.333v418.987
		C348.867,493.08,339.48,502.467,327.533,502.467"/>
	<polygon style="fill:#CCCCCC;" points="203.8,41.667 289.133,41.667 289.133,7.533 203.8,7.533 	"/>
	<g>
		<path style="fill:#B6B6B6;" d="M353.133,511H139.8c-16.213,0-29.867-13.653-29.867-29.867V63
			c0-16.213,13.653-29.867,29.867-29.867h214.187C369.347,33.133,383,46.787,383,63v418.987C383,497.347,369.347,511,353.133,511z
			 M139.8,50.2c-6.827,0-12.8,5.973-12.8,12.8v418.987c0,5.973,5.973,11.947,12.8,11.947h214.187c6.827,0,12.8-5.973,12.8-12.8V63
			c-0.853-6.827-6.827-12.8-13.653-12.8H139.8z"/>
		<path style="fill:#B6B6B6;" d="M289.133,50.2H203.8c-5.12,0-8.533-3.413-8.533-8.533V7.533c0-5.12,3.413-8.533,8.533-8.533h85.333
			c5.12,0,8.533,3.413,8.533,8.533v34.133C297.667,46.787,294.253,50.2,289.133,50.2z M212.333,33.133H280.6V16.067h-68.267V33.133z
			"/>
	</g>
</g>
<g>
</g>
<g>
</g>
<g>
</g>
<g>
</g>
<g>
</g>
<g>
</g>
<g>
</g>
<g>
</g>
<g>
</g>
<g>
</g>
<g>
</g>
<g>
</g>
<g>
</g>
<g>
</g>
<g>
</g>
</svg>
